# xmcd
#
# Track frame offsets: 
#        187
#        13910
#        24557
#        36577
#        48802
#        58775
#        81052
#        93560
#        112695
#        125990
#        142845
#        159242
#        171132
#        187285
#        206112
#
# Disc length: 2964 seconds
#
# Revision: 5
# Processed by: cddbd v1.5.2PL0 Copyright (c) Steve Scherf et al.
# Submitted via: ExactAudioCopy v1.0b6
#
DISCID=d00b920f
DTITLE=Dolly Parton - The RCA Years 1967-1986 CD2
DYEAR=1993
DGENRE=Country
TTITLE0=The Seeker (1974)
TTITLE1=Love Is Like a Butterfly (1974)
TTITLE2=Touch Your Woman (1971)
TTITLE3=The Bargain Store (1974)
TTITLE4=Making Plans with Porter Wagoner
TTITLE5=Light of a Clear Blue Morning (1976)
TTITLE6=9 to 5 (1980)
TTITLE7=Appalachian Memories (1983)
TTITLE8=Here You Come Again (1977)
TTITLE9=Single Women (1981)
TTITLE10=Hard Candy Christmas (1982)
TTITLE11=Baby I'm Burning (1978)
TTITLE12=Heartbreaker (1978)
TTITLE13=Islands in the Stream with Kenny Rogers (1983)
TTITLE14=Tennessee Homesick Blues (1984)
EXTD=
EXTT0=
EXTT1=
EXTT2=
EXTT3=
EXTT4=
EXTT5=
EXTT6=
EXTT7=
EXTT8=
EXTT9=
EXTT10=
EXTT11=
EXTT12=
EXTT13=
EXTT14=
PLAYORDER=
